<svg xmlns="http://www.w3.org/2000/svg" xmlns:xlink="http://www.w3.org/1999/xlink" width="500" zoomAndPan="magnify" viewBox="0 0 375 374.999991" height="500" preserveAspectRatio="xMidYMid meet" version="1.0"><defs><clipPath id="a4395830a9"><path d="M 117 59 L 257.816406 59 L 257.816406 277.6875 L 117 277.6875 Z M 117 59 " clip-rule="nonzero"/></clipPath></defs><g clip-path="url(#a4395830a9)"><path fill="#b0adad" d="M 254.824219 212.429688 L 191.316406 168.335938 L 254.824219 124.246094 C 256.925781 122.789062 258.179688 120.394531 258.179688 117.832031 C 258.179688 115.265625 256.925781 112.871094 254.824219 111.414062 L 181.320312 60.390625 C 178.929688 58.734375 175.8125 58.546875 173.246094 59.886719 C 170.667969 61.230469 169.054688 63.898438 169.054688 66.804688 L 169.054688 147.132812 L 131.269531 104.253906 C 128.414062 101.011719 123.480469 100.691406 120.246094 103.558594 C 117.007812 106.414062 116.699219 111.347656 119.546875 114.582031 L 166.496094 167.855469 L 119.503906 222.144531 C 116.679688 225.402344 117.035156 230.335938 120.296875 233.160156 C 121.773438 234.441406 123.59375 235.066406 125.40625 235.066406 C 127.59375 235.066406 129.773438 234.152344 131.3125 232.367188 L 169.054688 188.761719 L 169.054688 269.867188 C 169.054688 272.773438 170.667969 275.445312 173.246094 276.785156 C 174.382812 277.382812 175.625 277.679688 176.863281 277.679688 C 178.429688 277.679688 179.984375 277.207031 181.320312 276.28125 L 254.824219 225.257812 C 256.925781 223.800781 258.179688 221.40625 258.179688 218.84375 C 258.179688 216.28125 256.925781 213.886719 254.824219 212.429688 Z M 184.675781 81.730469 L 236.675781 117.832031 L 184.675781 153.929688 Z M 184.675781 254.941406 L 184.675781 182.746094 L 236.675781 218.84375 Z M 184.675781 254.941406 " fill-opacity="1" fill-rule="nonzero"/></g></svg>