<svg xmlns="http://www.w3.org/2000/svg" xmlns:xlink="http://www.w3.org/1999/xlink" width="500" zoomAndPan="magnify" viewBox="0 0 375 374.999991" height="500" preserveAspectRatio="xMidYMid meet" version="1.0"><defs><clipPath id="89a97d1b6b"><path d="M 15.132812 93.128906 L 366.132812 93.128906 L 366.132812 201 L 15.132812 201 Z M 15.132812 93.128906 " clip-rule="nonzero"/></clipPath><clipPath id="bdbccb6a3b"><path d="M 52 219 L 77 219 L 77 285.128906 L 52 285.128906 Z M 52 219 " clip-rule="nonzero"/></clipPath><clipPath id="df757f1b6d"><path d="M 86 219 L 111 219 L 111 285.128906 L 86 285.128906 Z M 86 219 " clip-rule="nonzero"/></clipPath><clipPath id="6e36314009"><path d="M 121 219 L 145 219 L 145 285.128906 L 121 285.128906 Z M 121 219 " clip-rule="nonzero"/></clipPath><clipPath id="2a0b8145c0"><path d="M 236 219 L 261 219 L 261 285.128906 L 236 285.128906 Z M 236 219 " clip-rule="nonzero"/></clipPath><clipPath id="67eba454f1"><path d="M 202 219 L 227 219 L 227 285.128906 L 202 285.128906 Z M 202 219 " clip-rule="nonzero"/></clipPath><clipPath id="a46fa7d5f5"><path d="M 155 219 L 179 219 L 179 285.128906 L 155 285.128906 Z M 155 219 " clip-rule="nonzero"/></clipPath><clipPath id="09726c32ee"><path d="M 270 219 L 295 219 L 295 285.128906 L 270 285.128906 Z M 270 219 " clip-rule="nonzero"/></clipPath><clipPath id="152b9ef7e3"><path d="M 305 219 L 330 219 L 330 285.128906 L 305 285.128906 Z M 305 219 " clip-rule="nonzero"/></clipPath></defs><path fill="#ffffff" d="M 51.617188 183.671875 L 329.835938 183.671875 L 329.835938 201.203125 L 51.617188 201.203125 Z M 51.617188 183.671875 " fill-opacity="1" fill-rule="nonzero"/><g clip-path="url(#89a97d1b6b)"><path fill="#ffffff" d="M 348 93.128906 L 33.523438 93.128906 C 23.566406 93.128906 15.429688 101.265625 15.429688 111.222656 L 15.429688 169.433594 C 15.429688 185.355469 27.28125 198.609375 42.570312 200.785156 L 42.570312 179.113281 C 42.570312 176.585938 44.605469 174.554688 47.128906 174.554688 L 334.394531 174.554688 C 336.917969 174.554688 338.953125 176.585938 338.953125 179.113281 L 338.953125 200.785156 C 354.3125 198.609375 366.09375 185.355469 366.09375 169.433594 L 366.09375 111.222656 C 366.09375 101.265625 357.960938 93.128906 348 93.128906 Z M 343.441406 120.269531 L 321.910156 120.269531 C 319.386719 120.269531 317.351562 118.238281 317.351562 115.710938 C 317.351562 113.1875 319.386719 111.152344 321.910156 111.152344 L 343.441406 111.152344 C 345.964844 111.152344 348 113.1875 348 115.710938 C 348 118.238281 345.964844 120.269531 343.441406 120.269531 Z M 343.441406 120.269531 " fill-opacity="1" fill-rule="nonzero"/></g><g clip-path="url(#bdbccb6a3b)"><path fill="#ffffff" d="M 70.132812 219.296875 C 67.679688 219.648438 65.925781 221.964844 66.277344 224.417969 C 69.011719 243.496094 64.3125 262.570312 53.089844 278.210938 C 51.617188 280.242188 52.109375 283.050781 54.144531 284.523438 C 54.914062 285.082031 55.894531 285.363281 56.808594 285.363281 C 58.210938 285.363281 59.613281 284.734375 60.453125 283.46875 C 73.078125 265.9375 78.339844 244.476562 75.253906 223.085938 C 74.902344 220.699219 72.589844 218.949219 70.132812 219.296875 Z M 70.132812 219.296875 " fill-opacity="1" fill-rule="nonzero"/></g><g clip-path="url(#df757f1b6d)"><path fill="#ffffff" d="M 104.5 219.296875 C 102.042969 219.648438 100.289062 221.964844 100.640625 224.417969 C 103.375 243.496094 98.675781 262.570312 87.457031 278.210938 C 85.984375 280.242188 86.472656 283.050781 88.507812 284.523438 C 89.28125 285.082031 90.261719 285.363281 91.171875 285.363281 C 92.574219 285.363281 93.980469 284.734375 94.820312 283.46875 C 107.445312 265.9375 112.703125 244.476562 109.617188 223.085938 C 109.265625 220.699219 107.023438 218.949219 104.5 219.296875 Z M 104.5 219.296875 " fill-opacity="1" fill-rule="nonzero"/></g><g clip-path="url(#6e36314009)"><path fill="#ffffff" d="M 138.933594 219.296875 C 136.480469 219.648438 134.726562 221.964844 135.078125 224.417969 C 137.8125 243.496094 133.113281 262.570312 121.890625 278.210938 C 120.417969 280.242188 120.910156 283.050781 122.945312 284.523438 C 123.714844 285.082031 124.695312 285.363281 125.609375 285.363281 C 127.011719 285.363281 128.414062 284.734375 129.253906 283.46875 C 141.878906 265.9375 147.140625 244.476562 144.054688 223.085938 C 143.703125 220.699219 141.386719 218.949219 138.933594 219.296875 Z M 138.933594 219.296875 " fill-opacity="1" fill-rule="nonzero"/></g><g clip-path="url(#2a0b8145c0)"><path fill="#ffffff" d="M 246.449219 224.417969 C 246.796875 221.964844 245.113281 219.648438 242.589844 219.296875 C 240.136719 218.949219 237.820312 220.632812 237.46875 223.15625 C 234.386719 244.546875 239.644531 266.007812 252.269531 283.539062 C 253.179688 284.734375 254.511719 285.433594 255.914062 285.433594 C 256.828125 285.433594 257.738281 285.152344 258.582031 284.59375 C 260.613281 283.121094 261.035156 280.3125 259.632812 278.28125 C 248.410156 262.640625 243.710938 243.496094 246.449219 224.417969 Z M 246.449219 224.417969 " fill-opacity="1" fill-rule="nonzero"/></g><g clip-path="url(#67eba454f1)"><path fill="#ffffff" d="M 212.082031 223.785156 C 212.082031 221.261719 210.046875 219.226562 207.523438 219.226562 C 205 219.226562 202.964844 221.261719 202.964844 223.785156 C 202.964844 243.144531 204.71875 265.375 217.832031 283.539062 C 218.746094 284.734375 220.078125 285.433594 221.480469 285.433594 C 222.390625 285.433594 223.304688 285.152344 224.144531 284.59375 C 226.179688 283.121094 226.601562 280.3125 225.199219 278.28125 C 213.625 262.148438 212.082031 241.671875 212.082031 223.785156 Z M 212.082031 223.785156 " fill-opacity="1" fill-rule="nonzero"/></g><g clip-path="url(#a46fa7d5f5)"><path fill="#ffffff" d="M 173.929688 219.296875 C 171.40625 219.296875 169.371094 221.332031 169.371094 223.855469 C 169.371094 241.742188 167.828125 262.21875 156.1875 278.28125 C 154.714844 280.3125 155.203125 283.121094 157.238281 284.59375 C 158.011719 285.152344 158.992188 285.433594 159.902344 285.433594 C 161.304688 285.433594 162.707031 284.800781 163.550781 283.539062 C 176.664062 265.375 178.417969 243.144531 178.417969 223.785156 C 178.488281 221.332031 176.453125 219.296875 173.929688 219.296875 Z M 173.929688 219.296875 " fill-opacity="1" fill-rule="nonzero"/></g><g clip-path="url(#09726c32ee)"><path fill="#ffffff" d="M 280.8125 224.417969 C 281.164062 221.964844 279.480469 219.648438 276.957031 219.296875 C 274.5 218.949219 272.1875 220.632812 271.835938 223.15625 C 268.75 244.546875 274.011719 266.007812 286.632812 283.539062 C 287.546875 284.734375 288.878906 285.433594 290.28125 285.433594 C 291.191406 285.433594 292.105469 285.152344 292.945312 284.59375 C 294.980469 283.121094 295.402344 280.3125 293.996094 278.28125 C 282.777344 262.640625 278.078125 243.496094 280.8125 224.417969 Z M 280.8125 224.417969 " fill-opacity="1" fill-rule="nonzero"/></g><g clip-path="url(#152b9ef7e3)"><path fill="#ffffff" d="M 315.25 224.417969 C 315.597656 221.964844 313.914062 219.648438 311.390625 219.296875 C 308.9375 218.949219 306.621094 220.632812 306.269531 223.15625 C 303.183594 244.546875 308.445312 266.007812 321.070312 283.539062 C 321.980469 284.734375 323.3125 285.433594 324.714844 285.433594 C 325.628906 285.433594 326.539062 285.152344 327.382812 284.59375 C 329.414062 283.121094 329.835938 280.3125 328.433594 278.28125 C 317.210938 262.640625 312.511719 243.496094 315.25 224.417969 Z M 315.25 224.417969 " fill-opacity="1" fill-rule="nonzero"/></g></svg>