<svg xmlns="http://www.w3.org/2000/svg" xmlns:xlink="http://www.w3.org/1999/xlink" width="500" zoomAndPan="magnify" viewBox="0 0 375 374.999991" height="500" preserveAspectRatio="xMidYMid meet" version="1.0"><defs><clipPath id="5b7bda5651"><path d="M 119.226562 351.296875 L 157.78125 351.296875 L 157.78125 369.722656 L 119.226562 369.722656 Z M 119.226562 351.296875 " clip-rule="nonzero"/></clipPath><clipPath id="1f63fd47ac"><path d="M 216.105469 351.296875 L 254 351.296875 L 254 369.722656 L 216.105469 369.722656 Z M 216.105469 351.296875 " clip-rule="nonzero"/></clipPath><clipPath id="4ab6ab4eff"><path d="M 99.457031 5.3125 L 274.039062 5.3125 L 274.039062 189 L 99.457031 189 Z M 99.457031 5.3125 " clip-rule="nonzero"/></clipPath><clipPath id="f125a762c1"><path d="M 99.457031 196.097656 L 274.039062 196.097656 L 274.039062 360 L 99.457031 360 Z M 99.457031 196.097656 " clip-rule="nonzero"/></clipPath></defs><g clip-path="url(#5b7bda5651)"><path fill="#ffffff" d="M 123.542969 351.742188 L 153.441406 351.742188 C 155.539062 351.742188 157.238281 353.441406 157.238281 355.539062 L 157.238281 365.925781 C 157.238281 368.023438 155.539062 369.722656 153.441406 369.722656 L 123.542969 369.722656 C 121.445312 369.722656 119.746094 368.023438 119.746094 365.925781 L 119.746094 355.539062 C 119.746094 353.441406 121.445312 351.742188 123.542969 351.742188 " fill-opacity="1" fill-rule="nonzero"/></g><g clip-path="url(#1f63fd47ac)"><path fill="#ffffff" d="M 220.0625 351.742188 L 249.960938 351.742188 C 252.058594 351.742188 253.757812 353.441406 253.757812 355.539062 L 253.757812 365.925781 C 253.757812 368.023438 252.058594 369.722656 249.960938 369.722656 L 220.0625 369.722656 C 217.964844 369.722656 216.265625 368.023438 216.265625 365.925781 L 216.265625 355.539062 C 216.265625 353.441406 217.964844 351.742188 220.0625 351.742188 " fill-opacity="1" fill-rule="nonzero"/></g><g clip-path="url(#4ab6ab4eff)"><path fill="#ffffff" d="M 240.046875 32.421875 C 240.046875 29.664062 242.285156 27.425781 245.046875 27.425781 C 247.804688 27.425781 250.042969 29.664062 250.042969 32.421875 C 250.042969 35.183594 247.804688 37.417969 245.046875 37.417969 C 242.285156 37.417969 240.046875 35.183594 240.046875 32.421875 Z M 249.820312 5.3125 L 123.679688 5.3125 C 117.015625 5.3125 110.957031 8.035156 106.570312 12.425781 C 102.179688 16.8125 99.457031 22.871094 99.457031 29.535156 L 99.457031 188.742188 L 274.042969 188.742188 L 274.042969 29.535156 C 274.042969 22.871094 271.324219 16.8125 266.933594 12.425781 C 262.546875 8.035156 256.488281 5.3125 249.820312 5.3125 Z M 128.457031 27.425781 C 131.21875 27.425781 133.453125 29.664062 133.453125 32.421875 C 133.453125 35.183594 131.21875 37.417969 128.457031 37.417969 C 125.695312 37.417969 123.460938 35.183594 123.460938 32.421875 C 123.460938 29.664062 125.695312 27.425781 128.457031 27.425781 Z M 118.796875 51.945312 L 254.707031 51.945312 C 256.804688 51.945312 258.503906 53.644531 258.503906 55.742188 L 258.503906 168.996094 C 258.503906 171.09375 256.804688 172.792969 254.707031 172.792969 L 118.796875 172.792969 C 116.699219 172.792969 115 171.09375 115 168.996094 L 115 55.742188 C 115 53.644531 116.699219 51.945312 118.796875 51.945312 " fill-opacity="1" fill-rule="evenodd"/></g><path fill="#ffffff" d="M 250.910156 59.539062 L 122.589844 59.539062 L 122.589844 74.597656 L 250.910156 74.597656 L 250.910156 59.539062 " fill-opacity="1" fill-rule="evenodd"/><path fill="#ffffff" d="M 250.910156 82.1875 L 122.589844 82.1875 L 122.589844 97.25 L 250.910156 97.25 L 250.910156 82.1875 " fill-opacity="1" fill-rule="evenodd"/><path fill="#ffffff" d="M 250.910156 104.839844 L 122.589844 104.839844 L 122.589844 119.898438 L 250.910156 119.898438 L 250.910156 104.839844 " fill-opacity="1" fill-rule="evenodd"/><path fill="#ffffff" d="M 250.910156 127.492188 L 122.589844 127.492188 L 122.589844 142.550781 L 250.910156 142.550781 L 250.910156 127.492188 " fill-opacity="1" fill-rule="evenodd"/><path fill="#ffffff" d="M 250.910156 150.140625 L 122.589844 150.140625 L 122.589844 165.203125 L 250.910156 165.203125 L 250.910156 150.140625 " fill-opacity="1" fill-rule="evenodd"/><g clip-path="url(#f125a762c1)"><path fill="#ffffff" d="M 274.042969 196.332031 L 99.457031 196.332031 L 99.457031 355.539062 C 99.457031 357.636719 101.15625 359.335938 103.253906 359.335938 C 155.941406 359.335938 217.558594 359.335938 270.25 359.335938 C 272.347656 359.335938 274.042969 357.636719 274.042969 355.539062 Z M 186.75 225.160156 C 196.996094 225.160156 206.273438 229.316406 212.988281 236.03125 C 219.703125 242.746094 223.859375 252.023438 223.859375 262.269531 C 223.859375 272.515625 219.703125 281.792969 212.988281 288.507812 C 206.273438 295.222656 196.996094 299.375 186.75 299.375 C 176.503906 299.375 167.230469 295.222656 160.515625 288.507812 C 153.800781 281.792969 149.644531 272.515625 149.644531 262.269531 C 149.644531 252.023438 153.800781 242.746094 160.515625 236.03125 C 167.230469 229.316406 176.503906 225.160156 186.75 225.160156 " fill-opacity="1" fill-rule="evenodd"/></g><path fill="#ffffff" d="M 207.625 241.398438 C 202.28125 236.058594 194.902344 232.753906 186.75 232.753906 C 178.601562 232.753906 171.222656 236.058594 165.882812 241.398438 C 160.539062 246.738281 157.238281 254.117188 157.238281 262.269531 C 157.238281 270.421875 160.539062 277.800781 165.882812 283.140625 C 171.222656 288.480469 178.601562 291.785156 186.75 291.785156 C 194.902344 291.785156 202.28125 288.480469 207.625 283.140625 C 212.960938 277.800781 216.265625 270.421875 216.265625 262.269531 C 216.265625 254.117188 212.960938 246.738281 207.625 241.398438 " fill-opacity="1" fill-rule="evenodd"/></svg>