<svg xmlns="http://www.w3.org/2000/svg" xmlns:xlink="http://www.w3.org/1999/xlink" width="500" zoomAndPan="magnify" viewBox="0 0 375 374.999991" height="500" preserveAspectRatio="xMidYMid meet" version="1.0"><defs><clipPath id="67ae804f7e"><path d="M 115 143 L 260 143 L 260 273.878906 L 115 273.878906 Z M 115 143 " clip-rule="nonzero"/></clipPath></defs><path fill="#19cbc0" d="M 274.304688 161.871094 L 245.132812 140.414062 L 245.132812 114.816406 C 245.132812 110.804688 241.875 107.558594 237.867188 107.558594 L 226.0625 107.558594 C 222.050781 107.558594 218.796875 110.808594 218.796875 114.816406 L 218.796875 121.035156 L 196.554688 104.675781 C 191.730469 101.117188 183.828125 101.117188 179.003906 104.675781 L 101.253906 161.871094 C 96.429688 165.421875 95.390625 172.285156 98.941406 177.113281 L 101.089844 180.03125 C 104.636719 184.863281 111.496094 185.910156 116.316406 182.355469 L 179.003906 136.222656 C 183.828125 132.671875 191.730469 132.671875 196.554688 136.222656 L 259.234375 182.355469 C 264.0625 185.910156 270.917969 184.855469 274.464844 180.03125 L 276.617188 177.113281 C 280.164062 172.285156 279.125 165.421875 274.304688 161.871094 Z M 274.304688 161.871094 " fill-opacity="1" fill-rule="nonzero"/><g clip-path="url(#67ae804f7e)"><path fill="#19cbc0" d="M 251.042969 186.367188 L 196.539062 146.085938 C 191.71875 142.519531 183.839844 142.519531 179.019531 146.085938 L 124.515625 186.367188 C 119.695312 189.933594 115.75 195.144531 115.75 197.96875 L 115.75 256.375 C 115.75 265.855469 123.878906 273.546875 133.910156 273.546875 L 167.195312 273.546875 L 167.195312 221.882812 C 167.195312 217.894531 170.464844 214.628906 174.457031 214.628906 L 201.09375 214.628906 C 205.082031 214.628906 208.351562 217.894531 208.351562 221.882812 L 208.351562 273.546875 L 241.644531 273.546875 C 251.667969 273.546875 259.792969 265.855469 259.792969 256.375 L 259.792969 197.96875 C 259.796875 195.144531 255.863281 189.933594 251.042969 186.367188 Z M 251.042969 186.367188 " fill-opacity="1" fill-rule="nonzero"/></g></svg>