<svg xmlns="http://www.w3.org/2000/svg" xmlns:xlink="http://www.w3.org/1999/xlink" width="500" zoomAndPan="magnify" viewBox="0 0 375 374.999991" height="500" preserveAspectRatio="xMidYMid meet" version="1.0"><defs><g/><clipPath id="eecc98f4da"><path d="M 257.304688 80 L 336 80 L 336 131 L 257.304688 131 Z M 257.304688 80 " clip-rule="nonzero"/></clipPath><clipPath id="f3fa4cef72"><path d="M 257.304688 79.855469 L 336.449219 79.855469 L 336.449219 131.433594 L 257.304688 131.433594 Z M 257.304688 79.855469 " clip-rule="nonzero"/></clipPath><clipPath id="869003513b"><path d="M 112.5 207 L 262 207 L 262 295 L 112.5 295 Z M 112.5 207 " clip-rule="nonzero"/></clipPath></defs><g clip-path="url(#eecc98f4da)"><path fill="#ff5757" d="M 335.644531 99.328125 C 335.644531 108.644531 328.910156 116.382812 320.046875 117.953125 L 320.046875 130.917969 L 307.382812 118.253906 L 276.753906 118.253906 C 266.304688 118.253906 257.828125 109.777344 257.828125 99.328125 C 257.828125 88.875 266.304688 80.402344 276.753906 80.402344 L 316.71875 80.402344 C 327.171875 80.402344 335.644531 88.875 335.644531 99.328125 Z M 335.644531 99.328125 " fill-opacity="1" fill-rule="nonzero"/></g><g clip-path="url(#f3fa4cef72)"><path fill="#03c03c" d="M 316.71875 79.875 L 276.753906 79.875 C 266.03125 79.875 257.304688 88.601562 257.304688 99.328125 C 257.304688 110.050781 266.03125 118.777344 276.753906 118.777344 L 307.164062 118.777344 L 319.675781 131.289062 C 319.777344 131.390625 319.910156 131.441406 320.046875 131.441406 C 320.113281 131.441406 320.183594 131.429688 320.246094 131.402344 C 320.445312 131.320312 320.570312 131.128906 320.570312 130.917969 L 320.570312 118.390625 C 329.636719 116.570312 336.167969 108.625 336.167969 99.328125 C 336.167969 88.601562 327.445312 79.875 316.71875 79.875 Z M 319.953125 117.4375 C 319.703125 117.484375 319.519531 117.699219 319.519531 117.953125 L 319.519531 129.648438 L 307.753906 117.878906 C 307.652344 117.78125 307.519531 117.726562 307.382812 117.726562 L 276.753906 117.726562 C 266.609375 117.726562 258.355469 109.472656 258.355469 99.328125 C 258.355469 89.179688 266.609375 80.925781 276.753906 80.925781 L 316.71875 80.925781 C 326.867188 80.925781 335.121094 89.179688 335.121094 99.328125 C 335.121094 108.261719 328.742188 115.878906 319.953125 117.4375 Z M 296.753906 91.902344 L 298.140625 91.902344 L 298.140625 107.242188 L 296.753906 107.242188 Z M 308.722656 96.75 C 307.910156 96.253906 307.003906 96.003906 306 96.003906 C 304.992188 96.003906 304.089844 96.253906 303.285156 96.75 C 302.480469 97.246094 301.851562 97.921875 301.394531 98.777344 C 300.941406 99.636719 300.710938 100.601562 300.710938 101.671875 C 300.710938 102.773438 300.941406 103.761719 301.394531 104.636719 C 301.851562 105.515625 302.480469 106.203125 303.285156 106.699219 C 304.089844 107.195312 304.996094 107.441406 306 107.441406 C 307.015625 107.441406 307.933594 107.191406 308.742188 106.6875 C 309.554688 106.183594 310.1875 105.496094 310.640625 104.617188 C 311.097656 103.738281 311.324219 102.757812 311.324219 101.671875 C 311.324219 100.601562 311.09375 99.636719 310.632812 98.777344 C 310.171875 97.921875 309.535156 97.246094 308.722656 96.75 Z M 309.496094 104.023438 C 309.148438 104.722656 308.664062 105.269531 308.050781 105.671875 C 307.433594 106.074219 306.75 106.277344 306 106.277344 C 305.25 106.277344 304.570312 106.078125 303.96875 105.683594 C 303.367188 105.289062 302.890625 104.738281 302.542969 104.035156 C 302.195312 103.332031 302.019531 102.542969 302.019531 101.671875 C 302.019531 100.828125 302.191406 100.0625 302.53125 99.371094 C 302.875 98.679688 303.347656 98.140625 303.960938 97.753906 C 304.570312 97.363281 305.25 97.171875 306 97.171875 C 306.761719 97.171875 307.449219 97.367188 308.058594 97.761719 C 308.667969 98.160156 309.148438 98.699219 309.496094 99.382812 C 309.84375 100.066406 310.019531 100.828125 310.019531 101.671875 C 310.019531 102.542969 309.84375 103.328125 309.496094 104.023438 Z M 310.683594 91.902344 L 322.863281 91.902344 L 322.863281 93.148438 L 317.457031 93.148438 L 317.457031 107.242188 L 316.070312 107.242188 L 316.070312 93.148438 L 310.683594 93.148438 Z M 277.980469 89.246094 C 272.421875 89.246094 267.902344 93.769531 267.902344 99.328125 C 267.902344 104.886719 272.421875 109.40625 277.980469 109.40625 C 283.539062 109.40625 288.058594 104.886719 288.058594 99.328125 C 288.058594 93.769531 283.539062 89.246094 277.980469 89.246094 Z M 274.617188 90.953125 C 273.703125 91.992188 272.980469 93.457031 272.53125 95.183594 L 269.964844 95.183594 C 270.957031 93.273438 272.609375 91.765625 274.617188 90.953125 Z M 268.953125 99.328125 C 268.953125 98.238281 269.152344 97.203125 269.507812 96.234375 L 272.292969 96.234375 C 272.113281 97.207031 272.015625 98.242188 272.015625 99.328125 C 272.015625 100.410156 272.113281 101.449219 272.292969 102.417969 L 269.507812 102.417969 C 269.152344 101.453125 268.953125 100.414062 268.953125 99.328125 Z M 269.964844 103.46875 L 272.53125 103.46875 C 272.980469 105.199219 273.703125 106.660156 274.617188 107.699219 C 272.609375 106.890625 270.957031 105.378906 269.964844 103.46875 Z M 277.457031 108.300781 C 275.816406 107.960938 274.390625 106.070312 273.636719 103.46875 L 277.457031 103.46875 Z M 277.457031 102.417969 L 273.382812 102.417969 C 273.183594 101.449219 273.066406 100.410156 273.066406 99.328125 C 273.066406 98.246094 273.183594 97.207031 273.382812 96.234375 L 277.457031 96.234375 Z M 277.457031 95.183594 L 273.636719 95.183594 C 274.390625 92.585938 275.816406 90.691406 277.457031 90.355469 Z M 278.503906 90.355469 C 280.144531 90.691406 281.570312 92.585938 282.324219 95.183594 L 278.503906 95.183594 Z M 278.503906 96.234375 L 282.578125 96.234375 C 282.777344 97.207031 282.894531 98.246094 282.894531 99.328125 C 282.894531 100.410156 282.777344 101.449219 282.578125 102.417969 L 278.503906 102.417969 Z M 278.503906 108.300781 L 278.503906 103.46875 L 282.324219 103.46875 C 281.570312 106.070312 280.144531 107.960938 278.503906 108.300781 Z M 281.34375 107.699219 C 282.257812 106.660156 282.980469 105.199219 283.429688 103.46875 L 285.996094 103.46875 C 285.003906 105.378906 283.351562 106.890625 281.34375 107.699219 Z M 287.011719 99.328125 C 287.011719 100.414062 286.808594 101.453125 286.453125 102.417969 L 283.667969 102.417969 C 283.847656 101.449219 283.945312 100.410156 283.945312 99.328125 C 283.945312 98.242188 283.847656 97.207031 283.667969 96.234375 L 286.453125 96.234375 C 286.808594 97.203125 287.011719 98.238281 287.011719 99.328125 Z M 283.429688 95.183594 C 282.980469 93.457031 282.257812 91.992188 281.34375 90.953125 C 283.351562 91.765625 285.003906 93.273438 285.996094 95.183594 Z M 283.429688 95.183594 " fill-opacity="1" fill-rule="nonzero"/></g><g fill="#ffffff" fill-opacity="1"><g transform="translate(46.804689, 155.071879)"><g><path d="M 18.921875 -6.453125 C 20.003906 -6.453125 21.054688 -6.613281 22.078125 -6.9375 C 23.109375 -7.269531 23.863281 -7.585938 24.34375 -7.890625 L 25.0625 -8.375 L 28.09375 -2.3125 C 28 -2.238281 27.863281 -2.132812 27.6875 -2 C 27.507812 -1.875 27.097656 -1.640625 26.453125 -1.296875 C 25.804688 -0.960938 25.113281 -0.664062 24.375 -0.40625 C 23.644531 -0.15625 22.6875 0.0664062 21.5 0.265625 C 20.3125 0.460938 19.085938 0.5625 17.828125 0.5625 C 14.921875 0.5625 12.164062 -0.148438 9.5625 -1.578125 C 6.957031 -3.003906 4.859375 -4.96875 3.265625 -7.46875 C 1.671875 -9.96875 0.875 -12.671875 0.875 -15.578125 C 0.875 -17.785156 1.335938 -19.898438 2.265625 -21.921875 C 3.203125 -23.941406 4.445312 -25.671875 6 -27.109375 C 7.5625 -28.554688 9.378906 -29.707031 11.453125 -30.5625 C 13.523438 -31.425781 15.648438 -31.859375 17.828125 -31.859375 C 19.847656 -31.859375 21.707031 -31.613281 23.40625 -31.125 C 25.113281 -30.644531 26.320312 -30.164062 27.03125 -29.6875 L 28.09375 -28.96875 L 25.0625 -22.90625 C 24.882812 -23.050781 24.617188 -23.234375 24.265625 -23.453125 C 23.910156 -23.671875 23.203125 -23.957031 22.140625 -24.3125 C 21.078125 -24.664062 20.003906 -24.84375 18.921875 -24.84375 C 17.203125 -24.84375 15.660156 -24.5625 14.296875 -24 C 12.929688 -23.445312 11.847656 -22.710938 11.046875 -21.796875 C 10.253906 -20.890625 9.648438 -19.910156 9.234375 -18.859375 C 8.816406 -17.816406 8.609375 -16.75 8.609375 -15.65625 C 8.609375 -13.28125 9.5 -11.148438 11.28125 -9.265625 C 13.0625 -7.390625 15.609375 -6.453125 18.921875 -6.453125 Z M 18.921875 -6.453125 "/></g></g></g><g fill="#ffffff" fill-opacity="1"><g transform="translate(75.35979, 155.071879)"><g><path d="M 0.875 -15.65625 C 0.875 -20.1875 2.414062 -24.019531 5.5 -27.15625 C 8.582031 -30.289062 12.296875 -31.859375 16.640625 -31.859375 C 21.015625 -31.859375 24.734375 -30.296875 27.796875 -27.171875 C 30.859375 -24.046875 32.390625 -20.207031 32.390625 -15.65625 C 32.390625 -11.082031 30.882812 -7.234375 27.875 -4.109375 C 24.863281 -0.992188 21.117188 0.5625 16.640625 0.5625 C 12.066406 0.5625 8.296875 -0.984375 5.328125 -4.078125 C 2.359375 -7.171875 0.875 -11.03125 0.875 -15.65625 Z M 8.578125 -15.65625 C 8.578125 -14.019531 8.828125 -12.523438 9.328125 -11.171875 C 9.835938 -9.816406 10.722656 -8.671875 11.984375 -7.734375 C 13.242188 -6.796875 14.796875 -6.328125 16.640625 -6.328125 C 19.296875 -6.328125 21.300781 -7.238281 22.65625 -9.0625 C 24.007812 -10.882812 24.6875 -13.082031 24.6875 -15.65625 C 24.6875 -18.207031 23.992188 -20.398438 22.609375 -22.234375 C 21.234375 -24.066406 19.242188 -24.984375 16.640625 -24.984375 C 14.066406 -24.984375 12.078125 -24.066406 10.671875 -22.234375 C 9.273438 -20.398438 8.578125 -18.207031 8.578125 -15.65625 Z M 8.578125 -15.65625 "/></g></g></g><g fill="#ffffff" fill-opacity="1"><g transform="translate(108.6172, 155.071879)"><g><path d="M 9.40625 -19.421875 L 9.40625 0 L 2.28125 0 L 2.28125 -31.28125 L 9.40625 -31.28125 L 21.84375 -11.875 L 21.921875 -11.875 L 21.921875 -31.28125 L 29.046875 -31.28125 L 29.046875 0 L 21.921875 0 L 9.484375 -19.421875 Z M 9.40625 -19.421875 "/></g></g></g><g fill="#ffffff" fill-opacity="1"><g transform="translate(139.940593, 155.071879)"><g><path d="M 0.296875 -25.03125 L 0.296875 -31.28125 L 22.296875 -31.28125 L 22.296875 -25.03125 L 14.859375 -25.03125 L 14.859375 0 L 7.734375 0 L 7.734375 -25.03125 Z M 0.296875 -25.03125 "/></g></g></g><g fill="#ffffff" fill-opacity="1"><g transform="translate(162.541975, 155.071879)"><g><path d="M 2.28125 -31.28125 L 13.46875 -31.28125 C 16.46875 -31.28125 18.914062 -30.476562 20.8125 -28.875 C 22.707031 -27.269531 23.65625 -24.976562 23.65625 -22 C 23.65625 -19.695312 23.082031 -17.765625 21.9375 -16.203125 C 20.789062 -14.648438 19.226562 -13.5625 17.25 -12.9375 L 28.03125 0 L 18.96875 0 L 9.40625 -12.359375 L 9.40625 0 L 2.28125 0 Z M 9.40625 -17.40625 L 10.234375 -17.40625 C 10.890625 -17.40625 11.445312 -17.414062 11.90625 -17.4375 C 12.363281 -17.46875 12.878906 -17.554688 13.453125 -17.703125 C 14.035156 -17.859375 14.503906 -18.070312 14.859375 -18.34375 C 15.210938 -18.625 15.515625 -19.03125 15.765625 -19.5625 C 16.023438 -20.09375 16.15625 -20.738281 16.15625 -21.5 C 16.15625 -22.257812 16.023438 -22.90625 15.765625 -23.4375 C 15.515625 -23.96875 15.210938 -24.367188 14.859375 -24.640625 C 14.503906 -24.921875 14.035156 -25.132812 13.453125 -25.28125 C 12.878906 -25.4375 12.363281 -25.523438 11.90625 -25.546875 C 11.445312 -25.578125 10.890625 -25.59375 10.234375 -25.59375 L 9.40625 -25.59375 Z M 9.40625 -17.40625 "/></g></g></g><g fill="#ffffff" fill-opacity="1"><g transform="translate(189.693973, 155.071879)"><g><path d="M 0.875 -15.65625 C 0.875 -20.1875 2.414062 -24.019531 5.5 -27.15625 C 8.582031 -30.289062 12.296875 -31.859375 16.640625 -31.859375 C 21.015625 -31.859375 24.734375 -30.296875 27.796875 -27.171875 C 30.859375 -24.046875 32.390625 -20.207031 32.390625 -15.65625 C 32.390625 -11.082031 30.882812 -7.234375 27.875 -4.109375 C 24.863281 -0.992188 21.117188 0.5625 16.640625 0.5625 C 12.066406 0.5625 8.296875 -0.984375 5.328125 -4.078125 C 2.359375 -7.171875 0.875 -11.03125 0.875 -15.65625 Z M 8.578125 -15.65625 C 8.578125 -14.019531 8.828125 -12.523438 9.328125 -11.171875 C 9.835938 -9.816406 10.722656 -8.671875 11.984375 -7.734375 C 13.242188 -6.796875 14.796875 -6.328125 16.640625 -6.328125 C 19.296875 -6.328125 21.300781 -7.238281 22.65625 -9.0625 C 24.007812 -10.882812 24.6875 -13.082031 24.6875 -15.65625 C 24.6875 -18.207031 23.992188 -20.398438 22.609375 -22.234375 C 21.234375 -24.066406 19.242188 -24.984375 16.640625 -24.984375 C 14.066406 -24.984375 12.078125 -24.066406 10.671875 -22.234375 C 9.273438 -20.398438 8.578125 -18.207031 8.578125 -15.65625 Z M 8.578125 -15.65625 "/></g></g></g><g fill="#ffffff" fill-opacity="1"><g transform="translate(222.951383, 155.071879)"><g><path d="M 9.40625 -31.28125 L 9.40625 -6.25 L 20.171875 -6.25 L 20.171875 0 L 2.28125 0 L 2.28125 -31.28125 Z M 9.40625 -31.28125 "/></g></g></g><g fill="#ffffff" fill-opacity="1"><g transform="translate(244.377193, 155.071879)"><g><path d="M 9.40625 -31.28125 L 9.40625 -6.25 L 20.171875 -6.25 L 20.171875 0 L 2.28125 0 L 2.28125 -31.28125 Z M 9.40625 -31.28125 "/></g></g></g><g fill="#ffffff" fill-opacity="1"><g transform="translate(265.803004, 155.071879)"><g><path d="M 20.171875 -31.28125 L 20.171875 -25.03125 L 9.40625 -25.03125 L 9.40625 -18.8125 L 19.71875 -18.8125 L 19.71875 -12.546875 L 9.40625 -12.546875 L 9.40625 -6.25 L 20.171875 -6.25 L 20.171875 0 L 2.28125 0 L 2.28125 -31.28125 Z M 20.171875 -31.28125 "/></g></g></g><g fill="#ffffff" fill-opacity="1"><g transform="translate(287.797654, 155.071879)"><g><path d="M 2.28125 -31.28125 L 13.46875 -31.28125 C 16.46875 -31.28125 18.914062 -30.476562 20.8125 -28.875 C 22.707031 -27.269531 23.65625 -24.976562 23.65625 -22 C 23.65625 -19.695312 23.082031 -17.765625 21.9375 -16.203125 C 20.789062 -14.648438 19.226562 -13.5625 17.25 -12.9375 L 28.03125 0 L 18.96875 0 L 9.40625 -12.359375 L 9.40625 0 L 2.28125 0 Z M 9.40625 -17.40625 L 10.234375 -17.40625 C 10.890625 -17.40625 11.445312 -17.414062 11.90625 -17.4375 C 12.363281 -17.46875 12.878906 -17.554688 13.453125 -17.703125 C 14.035156 -17.859375 14.503906 -18.070312 14.859375 -18.34375 C 15.210938 -18.625 15.515625 -19.03125 15.765625 -19.5625 C 16.023438 -20.09375 16.15625 -20.738281 16.15625 -21.5 C 16.15625 -22.257812 16.023438 -22.90625 15.765625 -23.4375 C 15.515625 -23.96875 15.210938 -24.367188 14.859375 -24.640625 C 14.503906 -24.921875 14.035156 -25.132812 13.453125 -25.28125 C 12.878906 -25.4375 12.363281 -25.523438 11.90625 -25.546875 C 11.445312 -25.578125 10.890625 -25.59375 10.234375 -25.59375 L 9.40625 -25.59375 Z M 9.40625 -17.40625 "/></g></g></g><g fill="#ffffff" fill-opacity="1"><g transform="translate(314.949652, 155.071879)"><g><path d="M 6.59375 -8.109375 C 7.8125 -8.109375 8.84375 -7.6875 9.6875 -6.84375 C 10.53125 -6 10.953125 -4.96875 10.953125 -3.75 C 10.953125 -2.5625 10.53125 -1.546875 9.6875 -0.703125 C 8.84375 0.140625 7.8125 0.5625 6.59375 0.5625 C 5.40625 0.5625 4.390625 0.140625 3.546875 -0.703125 C 2.703125 -1.546875 2.28125 -2.5625 2.28125 -3.75 C 2.28125 -4.96875 2.703125 -6 3.546875 -6.84375 C 4.390625 -7.6875 5.40625 -8.109375 6.59375 -8.109375 Z M 6.59375 -8.109375 "/></g></g></g><path fill="#ffffff" d="M 151.074219 181.617188 C 150.363281 185.429688 150.820312 189.695312 150.871094 193.605469 C 150.921875 197.71875 151.074219 201.734375 151.429688 205.796875 C 151.789062 209.707031 158.441406 210.265625 159.253906 206.355469 C 160.21875 201.9375 160.675781 197.820312 160.574219 193.351562 C 160.421875 188.984375 160.269531 184.257812 158.59375 180.195312 C 157.933594 178.621094 155.902344 177.757812 154.328125 178.0625 C 152.449219 178.417969 151.429688 179.890625 151.074219 181.617188 Z M 151.074219 181.617188 " fill-opacity="1" fill-rule="nonzero"/><path fill="#ffffff" d="M 206.289062 180.296875 C 204.765625 183.34375 205.375 187.867188 205.527344 191.21875 C 205.679688 195.128906 206.136719 198.734375 207.152344 202.496094 C 208.523438 207.625 215.027344 206.863281 216.042969 201.988281 C 216.90625 197.921875 216.957031 194.214844 216.5 190.101562 C 216.09375 186.394531 215.738281 181.972656 213.347656 178.925781 C 211.214844 176.234375 207.558594 177.707031 206.289062 180.296875 Z M 206.289062 180.296875 " fill-opacity="1" fill-rule="nonzero"/><g clip-path="url(#869003513b)"><path fill="#ffffff" d="M 112.777344 244.753906 C 112.625 252.425781 116.484375 259.636719 120.753906 265.785156 C 124.96875 271.828125 130.351562 277.109375 136.398438 281.328125 C 147.925781 289.351562 162.046875 293.921875 176.066406 294.535156 C 190.289062 295.144531 204.867188 292.195312 217.363281 285.289062 C 229.808594 278.429688 240.320312 268.324219 247.992188 256.335938 C 252.207031 249.734375 255.609375 242.519531 257.996094 235.054688 C 259.265625 231.191406 260.28125 227.179688 260.945312 223.167969 C 261.554688 219.207031 262.367188 214.683594 261.097656 210.824219 C 259.875 207.167969 255.40625 206.660156 253.679688 210.265625 C 252.308594 213.160156 252.15625 216.363281 251.496094 219.511719 C 250.835938 222.609375 250.125 225.707031 249.210938 228.753906 C 247.484375 234.597656 245.148438 240.285156 242.148438 245.566406 C 236.105469 256.285156 227.773438 265.886719 217.414062 272.691406 C 196.890625 286.101562 169.160156 287.929688 147.214844 276.652344 C 140.816406 273.351562 134.871094 268.933594 129.996094 263.703125 C 124.460938 257.757812 121.3125 250.851562 117.5 243.789062 C 116.382812 241.808594 112.828125 242.164062 112.777344 244.753906 Z M 112.777344 244.753906 " fill-opacity="1" fill-rule="nonzero"/></g></svg>