<svg xmlns="http://www.w3.org/2000/svg" xmlns:xlink="http://www.w3.org/1999/xlink" width="500" zoomAndPan="magnify" viewBox="0 0 375 374.999991" height="500" preserveAspectRatio="xMidYMid meet" version="1.0"><defs><clipPath id="e0f3a9226a"><path d="M 32.070312 4.835938 L 337.320312 4.835938 L 337.320312 364 L 32.070312 364 Z M 32.070312 4.835938 " clip-rule="nonzero"/></clipPath></defs><g clip-path="url(#e0f3a9226a)"><path fill="#ffffff" d="M 184.78125 363.78125 C 204.613281 363.78125 220.675781 347.71875 220.675781 327.886719 L 148.886719 327.886719 C 148.886719 347.71875 164.949219 363.78125 184.78125 363.78125 Z M 301.441406 256.097656 L 301.441406 157.386719 C 301.441406 102.199219 263.121094 56.164062 211.703125 43.960938 L 211.703125 31.757812 C 211.703125 16.859375 199.679688 4.835938 184.78125 4.835938 C 169.886719 4.835938 157.863281 16.859375 157.863281 31.757812 L 157.863281 43.960938 C 106.441406 56.164062 68.125 102.199219 68.125 157.386719 L 68.125 256.097656 L 32.230469 291.992188 L 32.230469 309.941406 L 337.335938 309.941406 L 337.335938 291.992188 Z M 301.441406 256.097656 " fill-opacity="1" fill-rule="nonzero"/></g></svg>