<svg xmlns="http://www.w3.org/2000/svg" xmlns:xlink="http://www.w3.org/1999/xlink" width="500" zoomAndPan="magnify" viewBox="0 0 375 374.999991" height="500" preserveAspectRatio="xMidYMid meet" version="1.0"><defs><clipPath id="780f4d4c00"><path d="M 170 245 L 219 245 L 219 264.273438 L 170 264.273438 Z M 170 245 " clip-rule="nonzero"/></clipPath><clipPath id="395f30fc17"><path d="M 99.976562 57.273438 L 288.226562 57.273438 L 288.226562 237 L 99.976562 237 Z M 99.976562 57.273438 " clip-rule="nonzero"/></clipPath></defs><g clip-path="url(#780f4d4c00)"><path fill="#b0adad" d="M 217.71875 246.253906 C 217.257812 245.582031 216.335938 245.121094 215.75 245.207031 L 172.507812 245.457031 C 172.507812 245.457031 170.957031 245.875 170.539062 246.546875 C 170.117188 247.214844 170.035156 248.054688 170.371094 248.765625 C 174.476562 258.195312 183.820312 264.269531 194.085938 264.269531 C 204.519531 264.269531 213.863281 258.070312 217.929688 248.472656 C 218.222656 247.71875 218.136719 246.882812 217.71875 246.253906 Z M 217.71875 246.253906 " fill-opacity="1" fill-rule="nonzero"/></g><g clip-path="url(#395f30fc17)"><path fill="#b0adad" d="M 286.480469 223.039062 L 259.957031 200.914062 L 259.957031 141.960938 C 259.957031 112.085938 239.925781 86.816406 212.605469 78.773438 C 212.734375 77.894531 212.902344 77.011719 212.902344 76.089844 C 212.902344 65.699219 204.476562 57.277344 194.085938 57.277344 C 183.695312 57.277344 175.273438 65.699219 175.273438 76.089844 C 175.273438 77.011719 175.441406 77.894531 175.566406 78.773438 C 148.246094 86.816406 128.21875 112.042969 128.21875 141.960938 L 128.21875 200.914062 L 101.652344 223.039062 C 100.5625 223.917969 99.976562 225.261719 99.976562 226.644531 L 99.976562 231.335938 C 99.976562 233.933594 102.070312 236.027344 104.667969 236.027344 L 283.460938 236.027344 C 286.058594 236.027344 288.15625 233.933594 288.15625 231.335938 L 288.15625 226.644531 C 288.15625 225.261719 287.527344 223.917969 286.480469 223.039062 Z M 184.742188 76.84375 C 184.742188 76.59375 184.660156 76.34375 184.660156 76.089844 C 184.660156 70.894531 188.890625 66.664062 194.085938 66.664062 C 199.28125 66.664062 203.472656 70.894531 203.472656 76.089844 C 203.472656 76.34375 203.429688 76.59375 203.390625 76.84375 C 200.328125 76.425781 197.230469 76.089844 194.042969 76.089844 C 190.859375 76.089844 187.800781 76.382812 184.742188 76.84375 Z M 184.742188 76.84375 " fill-opacity="1" fill-rule="nonzero"/></g></svg>