<svg xmlns="http://www.w3.org/2000/svg" xmlns:xlink="http://www.w3.org/1999/xlink" width="500" zoomAndPan="magnify" viewBox="0 0 375 374.999991" height="500" preserveAspectRatio="xMidYMid meet" version="1.0"><defs><clipPath id="76fa5e152a"><path d="M 16.207031 53 L 358.207031 53 L 358.207031 358.207031 L 16.207031 358.207031 Z M 16.207031 53 " clip-rule="nonzero"/></clipPath><clipPath id="79c849f7d3"><path d="M 162 16.207031 L 212 16.207031 L 212 188 L 162 188 Z M 162 16.207031 " clip-rule="nonzero"/></clipPath></defs><g clip-path="url(#76fa5e152a)"><path fill="#ffffff" d="M 302.902344 61.5625 C 292.902344 52.585938 277.433594 53.398438 268.386719 63.421875 C 259.359375 73.449219 260.171875 88.871094 270.199219 97.941406 C 295.191406 120.429688 309.539062 152.988281 309.539062 187.316406 C 309.539062 254.730469 254.707031 309.539062 187.316406 309.539062 C 119.925781 309.539062 65.09375 254.730469 65.09375 187.316406 C 65.09375 152.035156 79.964844 119.042969 105.914062 96.84375 C 116.15625 88.058594 117.375 72.636719 108.589844 62.375 C 99.78125 52.15625 84.382812 50.914062 74.117188 59.699219 C 37.308594 91.210938 16.207031 137.710938 16.207031 187.316406 C 16.207031 281.65625 92.976562 358.429688 187.316406 358.429688 C 281.65625 358.429688 358.429688 281.65625 358.429688 187.316406 C 358.429688 139.144531 338.183594 93.359375 302.902344 61.5625 Z M 302.902344 61.5625 " fill-opacity="1" fill-rule="nonzero"/></g><g clip-path="url(#79c849f7d3)"><path fill="#ffffff" d="M 187.316406 187.125 C 200.828125 187.125 211.761719 176.191406 211.761719 162.679688 L 211.761719 40.648438 C 211.761719 27.140625 200.828125 16.207031 187.316406 16.207031 C 173.804688 16.207031 162.871094 27.140625 162.871094 40.648438 L 162.871094 162.679688 C 162.871094 176.191406 173.804688 187.125 187.316406 187.125 Z M 187.316406 187.125 " fill-opacity="1" fill-rule="nonzero"/></g></svg>