<svg xmlns="http://www.w3.org/2000/svg" xmlns:xlink="http://www.w3.org/1999/xlink" width="500" zoomAndPan="magnify" viewBox="0 0 375 374.999991" height="500" preserveAspectRatio="xMidYMid meet" version="1.0"><defs><clipPath id="867db779e7"><path d="M 64.609375 68.292969 L 306.859375 68.292969 L 306.859375 310.542969 L 64.609375 310.542969 Z M 64.609375 68.292969 " clip-rule="nonzero"/></clipPath></defs><g clip-path="url(#867db779e7)"><path fill="#19cbc0" d="M 306.335938 189.09375 C 306.335938 122.414062 252.085938 68.167969 185.410156 68.167969 C 118.730469 68.167969 64.484375 122.414062 64.484375 189.09375 C 64.484375 255.769531 118.730469 310.019531 185.410156 310.019531 C 252.085938 310.019531 306.335938 255.769531 306.335938 189.09375 Z M 197.28125 188.90625 C 197.28125 195.246094 192.144531 200.382812 185.804688 200.382812 C 179.464844 200.382812 174.328125 195.246094 174.328125 188.90625 L 174.328125 129.222656 C 174.328125 122.886719 179.464844 117.75 185.804688 117.75 C 192.140625 117.75 197.28125 122.882812 197.28125 129.222656 Z M 263.496094 189.292969 C 263.496094 232.347656 228.46875 267.375 185.410156 267.375 C 142.351562 267.375 107.324219 232.347656 107.324219 189.292969 C 107.324219 168.421875 115.453125 148.800781 130.222656 134.054688 C 132.460938 131.816406 135.394531 130.699219 138.332031 130.699219 C 141.269531 130.699219 144.210938 131.820312 146.453125 134.066406 C 150.933594 138.550781 150.925781 145.816406 146.441406 150.296875 C 136.023438 160.710938 130.28125 174.558594 130.28125 189.292969 C 130.28125 219.6875 155.007812 244.417969 185.410156 244.417969 C 215.808594 244.417969 240.539062 219.6875 240.539062 189.292969 C 240.539062 174.566406 234.808594 160.722656 224.394531 150.308594 C 219.914062 145.824219 219.917969 138.5625 224.402344 134.074219 C 228.886719 129.589844 236.148438 129.597656 240.636719 134.082031 C 255.375 148.828125 263.496094 168.441406 263.496094 189.292969 Z M 263.496094 189.292969 " fill-opacity="1" fill-rule="nonzero"/></g></svg>