<svg xmlns="http://www.w3.org/2000/svg" xmlns:xlink="http://www.w3.org/1999/xlink" width="500" zoomAndPan="magnify" viewBox="0 0 375 374.999991" height="500" preserveAspectRatio="xMidYMid meet" version="1.0"><defs><clipPath id="66866a5b5b"><path d="M 43.980469 44 L 312.40625 44 L 312.40625 312.480469 L 43.980469 312.480469 Z M 43.980469 44 " clip-rule="nonzero"/></clipPath></defs><g clip-path="url(#66866a5b5b)"><path fill="#19cbc0" d="M 177.359375 127.207031 C 205.285156 126.683594 228.320312 148.910156 228.84375 176.832031 C 228.84375 177.335938 228.84375 177.8125 228.84375 178.3125 C 229.15625 206.238281 206.785156 229.132812 178.859375 229.441406 C 150.933594 229.75 128.042969 207.382812 127.730469 179.457031 C 127.730469 179.074219 127.730469 178.695312 127.730469 178.3125 C 127.421875 150.53125 149.578125 127.707031 177.359375 127.207031 Z M 182.773438 44.097656 C 175.234375 43.835938 167.675781 44.21875 160.210938 45.21875 C 157.566406 45.578125 155.394531 47.4375 154.609375 49.964844 L 147.167969 74.195312 C 146.523438 76.246094 144.949219 77.890625 142.921875 78.605469 C 139.417969 79.871094 135.984375 81.277344 132.621094 82.875 C 130.664062 83.828125 128.375 83.78125 126.46875 82.753906 L 104.097656 70.878906 C 101.738281 69.640625 98.875 69.878906 96.777344 71.5 C 87.191406 78.773438 78.652344 87.335938 71.355469 96.898438 C 69.734375 99.019531 69.496094 101.859375 70.738281 104.21875 L 82.636719 126.609375 C 83.660156 128.496094 83.757812 130.785156 82.875 132.738281 C 81.253906 136.101562 79.824219 139.535156 78.582031 143.042969 C 77.867188 145.09375 76.222656 146.667969 74.148438 147.285156 L 49.941406 154.75 C 47.390625 155.515625 45.53125 157.707031 45.195312 160.332031 C 43.574219 172.277344 43.574219 184.347656 45.195312 196.292969 C 45.53125 198.917969 47.390625 201.109375 49.941406 201.875 L 74.148438 209.335938 C 76.222656 209.957031 77.867188 211.53125 78.582031 213.582031 C 79.824219 217.089844 81.253906 220.523438 82.875 223.882812 C 83.757812 225.839844 83.660156 228.128906 82.636719 230.011719 L 70.738281 252.40625 C 69.496094 254.742188 69.734375 257.605469 71.355469 259.726562 C 78.652344 269.289062 87.191406 277.828125 96.777344 285.125 C 98.875 286.746094 101.738281 286.960938 104.097656 285.746094 L 126.46875 273.867188 C 128.375 272.84375 130.664062 272.796875 132.621094 273.726562 C 135.984375 275.324219 139.417969 276.753906 142.921875 277.996094 C 144.949219 278.710938 146.523438 280.355469 147.167969 282.40625 L 154.609375 306.636719 C 155.394531 309.1875 157.566406 311.046875 160.210938 311.382812 C 172.136719 313.003906 184.226562 313.003906 196.148438 311.382812 C 198.773438 311.046875 200.96875 309.1875 201.753906 306.636719 L 209.195312 282.40625 C 209.839844 280.355469 211.414062 278.710938 213.441406 277.996094 C 216.945312 276.753906 220.402344 275.324219 223.742188 273.726562 C 225.695312 272.796875 227.960938 272.84375 229.871094 273.867188 L 252.261719 285.746094 C 254.625 286.960938 257.484375 286.746094 259.585938 285.125 C 269.171875 277.828125 277.707031 269.289062 285.003906 259.726562 C 286.628906 257.605469 286.867188 254.742188 285.625 252.40625 L 273.75 230.011719 C 272.699219 228.128906 272.628906 225.839844 273.511719 223.882812 C 275.109375 220.523438 276.539062 217.089844 277.78125 213.582031 C 278.496094 211.53125 280.140625 209.957031 282.214844 209.335938 L 306.445312 201.875 C 308.972656 201.085938 310.832031 198.917969 311.191406 196.292969 C 312.789062 184.347656 312.789062 172.277344 311.191406 160.332031 C 310.832031 157.707031 308.972656 155.515625 306.445312 154.75 L 282.214844 147.285156 C 280.140625 146.667969 278.496094 145.09375 277.78125 143.042969 C 276.539062 139.535156 275.109375 136.101562 273.511719 132.738281 C 272.628906 130.785156 272.699219 128.496094 273.75 126.609375 L 285.625 104.21875 C 286.867188 101.859375 286.628906 99.019531 285.003906 96.898438 C 277.707031 87.335938 269.171875 78.773438 259.585938 71.5 C 257.484375 69.878906 254.625 69.640625 252.261719 70.878906 L 229.871094 82.753906 C 227.960938 83.78125 225.695312 83.828125 223.742188 82.898438 C 220.402344 81.300781 216.945312 79.871094 213.441406 78.628906 C 211.414062 77.914062 209.839844 76.269531 209.195312 74.195312 L 201.753906 49.988281 C 200.96875 47.4375 198.773438 45.578125 196.148438 45.21875 C 191.714844 44.625 187.253906 44.242188 182.773438 44.097656 " fill-opacity="1" fill-rule="nonzero"/></g></svg>