<svg xmlns="http://www.w3.org/2000/svg" xmlns:xlink="http://www.w3.org/1999/xlink" width="500" zoomAndPan="magnify" viewBox="0 0 375 374.999991" height="500" preserveAspectRatio="xMidYMid meet" version="1.0"><defs><clipPath id="cbac912b41"><path d="M 77 95.296875 L 328 95.296875 L 328 167 L 77 167 Z M 77 95.296875 " clip-rule="nonzero"/></clipPath><clipPath id="f7790a2788"><path d="M 178 242 L 228 242 L 228 291.796875 L 178 291.796875 Z M 178 242 " clip-rule="nonzero"/></clipPath></defs><g clip-path="url(#cbac912b41)"><path fill="#b0adad" d="M 202.636719 95.296875 C 197.011719 95.28125 191.398438 95.542969 185.796875 96.082031 C 180.199219 96.621094 174.640625 97.4375 169.121094 98.527344 C 163.601562 99.617188 158.148438 100.976562 152.765625 102.605469 C 147.378906 104.234375 142.089844 106.125 136.890625 108.277344 C 131.691406 110.429688 126.613281 112.835938 121.65625 115.492188 C 116.695312 118.144531 111.878906 121.039062 107.207031 124.171875 C 102.53125 127.304688 98.023438 130.660156 93.683594 134.238281 C 89.34375 137.8125 85.1875 141.597656 81.222656 145.585938 C 80.652344 146.15625 80.140625 146.777344 79.695312 147.445312 C 79.246094 148.117188 78.867188 148.824219 78.558594 149.570312 C 78.25 150.3125 78.019531 151.082031 77.863281 151.871094 C 77.703125 152.660156 77.625 153.460938 77.625 154.265625 C 77.625 155.070312 77.703125 155.871094 77.863281 156.660156 C 78.019531 157.449219 78.25 158.21875 78.558594 158.964844 C 78.867188 159.707031 79.246094 160.414062 79.695312 161.085938 C 80.140625 161.753906 80.652344 162.375 81.222656 162.945312 C 81.789062 163.515625 82.410156 164.023438 83.082031 164.472656 C 83.75 164.917969 84.457031 165.296875 85.203125 165.605469 C 85.949219 165.914062 86.714844 166.148438 87.503906 166.304688 C 88.296875 166.460938 89.09375 166.539062 89.898438 166.539062 C 90.707031 166.539062 91.503906 166.460938 92.292969 166.304688 C 93.085938 166.148438 93.851562 165.914062 94.597656 165.605469 C 95.339844 165.296875 96.046875 164.917969 96.71875 164.472656 C 97.390625 164.023438 98.007812 163.515625 98.578125 162.945312 C 100.28125 161.242188 102.027344 159.585938 103.8125 157.96875 C 105.597656 156.351562 107.421875 154.78125 109.28125 153.253906 C 111.144531 151.726562 113.042969 150.246094 114.980469 148.816406 C 116.914062 147.382812 118.882812 145.996094 120.886719 144.660156 C 122.886719 143.320312 124.921875 142.035156 126.988281 140.796875 C 129.054688 139.5625 131.148438 138.375 133.273438 137.242188 C 135.398438 136.105469 137.546875 135.023438 139.726562 133.996094 C 141.902344 132.96875 144.101562 131.992188 146.328125 131.070312 C 148.554688 130.152344 150.800781 129.285156 153.066406 128.476562 C 155.335938 127.664062 157.621094 126.910156 159.925781 126.210938 C 162.230469 125.511719 164.550781 124.871094 166.886719 124.285156 C 169.222656 123.703125 171.570312 123.175781 173.933594 122.707031 C 176.292969 122.234375 178.664062 121.824219 181.046875 121.472656 C 183.429688 121.117188 185.820312 120.824219 188.214844 120.589844 C 190.613281 120.351562 193.011719 120.175781 195.417969 120.058594 C 197.824219 119.941406 200.230469 119.878906 202.636719 119.878906 C 205.042969 119.878906 207.453125 119.941406 209.855469 120.058594 C 212.261719 120.175781 214.664062 120.351562 217.058594 120.589844 C 219.453125 120.824219 221.84375 121.117188 224.226562 121.472656 C 226.609375 121.824219 228.980469 122.234375 231.34375 122.707031 C 233.703125 123.175781 236.050781 123.703125 238.386719 124.285156 C 240.722656 124.871094 243.042969 125.511719 245.347656 126.210938 C 247.652344 126.910156 249.9375 127.664062 252.207031 128.476562 C 254.472656 129.285156 256.71875 130.152344 258.945312 131.070312 C 261.171875 131.992188 263.371094 132.96875 265.546875 133.996094 C 267.726562 135.023438 269.875 136.105469 272 137.242188 C 274.125 138.375 276.21875 139.5625 278.285156 140.796875 C 280.351562 142.035156 282.386719 143.320312 284.386719 144.660156 C 286.390625 145.996094 288.359375 147.382812 290.292969 148.816406 C 292.230469 150.246094 294.128906 151.726562 295.992188 153.253906 C 297.851562 154.78125 299.675781 156.351562 301.460938 157.96875 C 303.246094 159.585938 304.992188 161.242188 306.695312 162.945312 C 307.265625 163.515625 307.882812 164.023438 308.554688 164.472656 C 309.226562 164.917969 309.933594 165.296875 310.675781 165.605469 C 311.421875 165.914062 312.1875 166.148438 312.980469 166.304688 C 313.769531 166.460938 314.566406 166.539062 315.375 166.539062 C 316.179688 166.539062 316.976562 166.460938 317.769531 166.304688 C 318.558594 166.148438 319.328125 165.914062 320.070312 165.605469 C 320.816406 165.296875 321.523438 164.917969 322.191406 164.472656 C 322.863281 164.023438 323.484375 163.515625 324.054688 162.945312 C 324.621094 162.375 325.132812 161.753906 325.578125 161.085938 C 326.027344 160.414062 326.40625 159.707031 326.714844 158.964844 C 327.023438 158.21875 327.253906 157.449219 327.410156 156.660156 C 327.570312 155.871094 327.648438 155.070312 327.648438 154.265625 C 327.648438 153.460938 327.570312 152.660156 327.410156 151.871094 C 327.253906 151.082031 327.023438 150.3125 326.714844 149.570312 C 326.40625 148.824219 326.027344 148.117188 325.578125 147.445312 C 325.132812 146.777344 324.621094 146.15625 324.054688 145.585938 C 320.085938 141.597656 315.933594 137.8125 311.589844 134.238281 C 307.25 130.660156 302.742188 127.304688 298.070312 124.171875 C 293.394531 121.039062 288.578125 118.144531 283.621094 115.492188 C 278.660156 112.835938 273.582031 110.429688 268.382812 108.277344 C 263.1875 106.125 257.894531 104.234375 252.511719 102.605469 C 247.125 100.976562 241.671875 99.617188 236.152344 98.527344 C 230.632812 97.4375 225.074219 96.621094 219.476562 96.082031 C 213.875 95.542969 208.261719 95.28125 202.636719 95.296875 Z M 202.636719 95.296875 " fill-opacity="1" fill-rule="nonzero"/></g><path fill="#b0adad" d="M 202.636719 144.382812 C 198.625 144.363281 194.617188 144.542969 190.625 144.921875 C 186.628906 145.300781 182.660156 145.875 178.722656 146.644531 C 174.78125 147.414062 170.890625 148.375 167.046875 149.53125 C 163.203125 150.6875 159.425781 152.027344 155.714844 153.554688 C 152.003906 155.082031 148.375 156.789062 144.835938 158.675781 C 141.292969 160.5625 137.851562 162.621094 134.511719 164.847656 C 131.171875 167.074219 127.949219 169.460938 124.847656 172.003906 C 121.746094 174.550781 118.773438 177.242188 115.9375 180.078125 C 115.410156 180.65625 114.941406 181.277344 114.53125 181.945312 C 114.121094 182.613281 113.78125 183.3125 113.503906 184.042969 C 113.230469 184.777344 113.027344 185.527344 112.894531 186.296875 C 112.761719 187.070312 112.707031 187.84375 112.722656 188.628906 C 112.738281 189.410156 112.832031 190.183594 112.996094 190.945312 C 113.160156 191.710938 113.394531 192.453125 113.703125 193.171875 C 114.007812 193.890625 114.382812 194.574219 114.820312 195.222656 C 115.257812 195.871094 115.75 196.472656 116.304688 197.027344 C 116.855469 197.582031 117.457031 198.078125 118.101562 198.515625 C 118.75 198.957031 119.433594 199.328125 120.152344 199.636719 C 120.871094 199.945312 121.613281 200.183594 122.375 200.351562 C 123.140625 200.515625 123.914062 200.609375 124.695312 200.628906 C 125.476562 200.648438 126.253906 200.59375 127.023438 200.464844 C 127.796875 200.332031 128.546875 200.132812 129.28125 199.859375 C 130.011719 199.585938 130.714844 199.246094 131.378906 198.839844 C 132.046875 198.429688 132.671875 197.964844 133.25 197.4375 C 134.386719 196.304688 135.550781 195.195312 136.738281 194.117188 C 137.929688 193.039062 139.144531 191.992188 140.386719 190.972656 C 141.628906 189.957031 142.894531 188.96875 144.183594 188.011719 C 145.472656 187.054688 146.789062 186.132812 148.121094 185.242188 C 149.457031 184.347656 150.816406 183.492188 152.191406 182.664062 C 153.570312 181.839844 154.964844 181.050781 156.382812 180.292969 C 157.800781 179.535156 159.234375 178.816406 160.683594 178.128906 C 162.136719 177.441406 163.605469 176.792969 165.089844 176.179688 C 166.570312 175.5625 168.070312 174.988281 169.582031 174.445312 C 171.09375 173.90625 172.617188 173.402344 174.15625 172.9375 C 175.691406 172.46875 177.238281 172.042969 178.796875 171.652344 C 180.355469 171.261719 181.921875 170.910156 183.496094 170.597656 C 185.070312 170.285156 186.652344 170.011719 188.238281 169.773438 C 189.828125 169.539062 191.421875 169.34375 193.019531 169.183594 C 194.617188 169.027344 196.21875 168.910156 197.824219 168.832031 C 199.425781 168.753906 201.03125 168.714844 202.636719 168.714844 C 204.242188 168.714844 205.847656 168.753906 207.453125 168.832031 C 209.054688 168.910156 210.65625 169.027344 212.253906 169.183594 C 213.851562 169.34375 215.445312 169.539062 217.035156 169.773438 C 218.621094 170.011719 220.203125 170.285156 221.777344 170.597656 C 223.355469 170.910156 224.921875 171.261719 226.476562 171.652344 C 228.035156 172.042969 229.582031 172.46875 231.121094 172.9375 C 232.65625 173.402344 234.179688 173.90625 235.691406 174.445312 C 237.203125 174.988281 238.703125 175.5625 240.1875 176.179688 C 241.667969 176.792969 243.136719 177.441406 244.589844 178.128906 C 246.039062 178.816406 247.472656 179.535156 248.890625 180.292969 C 250.308594 181.050781 251.703125 181.839844 253.082031 182.664062 C 254.460938 183.492188 255.816406 184.347656 257.152344 185.242188 C 258.488281 186.132812 259.800781 187.054688 261.089844 188.011719 C 262.378906 188.96875 263.644531 189.957031 264.886719 190.972656 C 266.128906 191.992188 267.34375 193.039062 268.535156 194.117188 C 269.726562 195.195312 270.886719 196.304688 272.023438 197.4375 C 272.59375 198.003906 273.210938 198.511719 273.882812 198.957031 C 274.550781 199.402344 275.253906 199.777344 275.996094 200.082031 C 276.742188 200.390625 277.503906 200.621094 278.292969 200.777344 C 279.082031 200.933594 279.878906 201.011719 280.679688 201.011719 C 281.484375 201.011719 282.28125 200.933594 283.066406 200.777344 C 283.855469 200.621094 284.621094 200.390625 285.363281 200.082031 C 286.105469 199.777344 286.8125 199.402344 287.480469 198.957031 C 288.148438 198.511719 288.769531 198.003906 289.335938 197.4375 C 289.910156 196.871094 290.421875 196.25 290.871094 195.582031 C 291.320312 194.910156 291.703125 194.203125 292.011719 193.460938 C 292.320312 192.714844 292.554688 191.945312 292.714844 191.15625 C 292.871094 190.363281 292.953125 189.566406 292.953125 188.757812 C 292.953125 187.953125 292.871094 187.152344 292.714844 186.363281 C 292.554688 185.570312 292.320312 184.804688 292.011719 184.058594 C 291.703125 183.3125 291.320312 182.605469 290.871094 181.9375 C 290.421875 181.265625 289.910156 180.648438 289.335938 180.078125 C 286.5 177.242188 283.53125 174.550781 280.425781 172.003906 C 277.324219 169.460938 274.101562 167.074219 270.761719 164.847656 C 267.421875 162.621094 263.980469 160.5625 260.441406 158.675781 C 256.898438 156.789062 253.269531 155.082031 249.558594 153.554688 C 245.847656 152.027344 242.070312 150.6875 238.226562 149.53125 C 234.382812 148.375 230.492188 147.414062 226.550781 146.644531 C 222.613281 145.875 218.644531 145.300781 214.652344 144.921875 C 210.65625 144.542969 206.648438 144.363281 202.636719 144.382812 Z M 202.636719 144.382812 " fill-opacity="1" fill-rule="nonzero"/><path fill="#b0adad" d="M 150.609375 214.972656 C 149.996094 215.535156 149.445312 216.148438 148.960938 216.820312 C 148.472656 217.492188 148.058594 218.203125 147.714844 218.960938 C 147.371094 219.714844 147.109375 220.496094 146.925781 221.304688 C 146.742188 222.113281 146.640625 222.933594 146.621094 223.761719 C 146.605469 224.59375 146.667969 225.414062 146.816406 226.230469 C 146.96875 227.046875 147.195312 227.839844 147.503906 228.609375 C 147.816406 229.378906 148.199219 230.109375 148.65625 230.800781 C 149.113281 231.492188 149.636719 232.132812 150.222656 232.714844 C 150.8125 233.300781 151.453125 233.824219 152.144531 234.277344 C 152.835938 234.734375 153.570312 235.117188 154.339844 235.425781 C 155.109375 235.730469 155.902344 235.960938 156.71875 236.105469 C 157.535156 236.253906 158.359375 236.316406 159.1875 236.296875 C 160.015625 236.277344 160.835938 236.171875 161.644531 235.988281 C 162.449219 235.800781 163.234375 235.535156 163.988281 235.191406 C 164.742188 234.847656 165.453125 234.429688 166.125 233.941406 C 166.792969 233.453125 167.40625 232.902344 167.964844 232.289062 C 169.101562 231.152344 170.292969 230.078125 171.53125 229.058594 C 172.773438 228.042969 174.0625 227.089844 175.398438 226.199219 C 176.734375 225.308594 178.109375 224.484375 179.527344 223.726562 C 180.945312 222.972656 182.394531 222.289062 183.878906 221.675781 C 185.359375 221.058594 186.871094 220.519531 188.40625 220.054688 C 189.945312 219.589844 191.5 219.199219 193.074219 218.886719 C 194.648438 218.574219 196.234375 218.339844 197.832031 218.183594 C 199.429688 218.027344 201.03125 217.949219 202.636719 217.949219 C 204.242188 217.949219 205.84375 218.027344 207.441406 218.183594 C 209.039062 218.339844 210.625 218.574219 212.199219 218.886719 C 213.773438 219.199219 215.332031 219.589844 216.867188 220.054688 C 218.402344 220.519531 219.914062 221.058594 221.398438 221.675781 C 222.878906 222.289062 224.332031 222.972656 225.746094 223.726562 C 227.164062 224.484375 228.539062 225.308594 229.875 226.199219 C 231.210938 227.089844 232.5 228.042969 233.742188 229.058594 C 234.984375 230.078125 236.171875 231.152344 237.308594 232.289062 C 237.867188 232.902344 238.480469 233.453125 239.148438 233.941406 C 239.820312 234.429688 240.53125 234.847656 241.285156 235.191406 C 242.042969 235.535156 242.824219 235.800781 243.632812 235.988281 C 244.4375 236.171875 245.257812 236.277344 246.085938 236.296875 C 246.917969 236.316406 247.738281 236.253906 248.554688 236.105469 C 249.371094 235.960938 250.164062 235.730469 250.933594 235.425781 C 251.707031 235.117188 252.4375 234.734375 253.128906 234.277344 C 253.824219 233.824219 254.460938 233.300781 255.050781 232.71875 C 255.636719 232.132812 256.160156 231.492188 256.617188 230.800781 C 257.074219 230.109375 257.457031 229.378906 257.769531 228.609375 C 258.078125 227.839844 258.308594 227.046875 258.457031 226.230469 C 258.605469 225.414062 258.671875 224.59375 258.652344 223.761719 C 258.632812 222.933594 258.53125 222.113281 258.347656 221.304688 C 258.164062 220.496094 257.902344 219.714844 257.558594 218.960938 C 257.214844 218.203125 256.800781 217.492188 256.316406 216.820312 C 255.828125 216.148438 255.277344 215.535156 254.664062 214.972656 C 253.8125 214.125 252.941406 213.296875 252.046875 212.488281 C 251.15625 211.679688 250.242188 210.894531 249.3125 210.132812 C 248.378906 209.371094 247.429688 208.628906 246.464844 207.914062 C 245.496094 207.199219 244.511719 206.507812 243.507812 205.839844 C 242.507812 205.171875 241.492188 204.527344 240.457031 203.910156 C 239.425781 203.292969 238.378906 202.699219 237.316406 202.132812 C 236.253906 201.566406 235.175781 201.027344 234.089844 200.511719 C 233 199.996094 231.898438 199.511719 230.789062 199.050781 C 229.675781 198.589844 228.550781 198.160156 227.417969 197.753906 C 226.285156 197.347656 225.140625 196.972656 223.988281 196.621094 C 222.835938 196.273438 221.679688 195.953125 220.511719 195.660156 C 219.34375 195.371094 218.167969 195.105469 216.988281 194.871094 C 215.804688 194.636719 214.621094 194.429688 213.429688 194.253906 C 212.238281 194.078125 211.042969 193.933594 209.847656 193.8125 C 208.648438 193.695312 207.449219 193.609375 206.246094 193.546875 C 205.042969 193.488281 203.839844 193.460938 202.636719 193.460938 C 201.433594 193.460938 200.230469 193.488281 199.027344 193.546875 C 197.824219 193.609375 196.625 193.695312 195.425781 193.8125 C 194.230469 193.933594 193.035156 194.078125 191.84375 194.253906 C 190.652344 194.429688 189.46875 194.636719 188.285156 194.871094 C 187.105469 195.105469 185.929688 195.371094 184.765625 195.660156 C 183.597656 195.953125 182.4375 196.273438 181.285156 196.621094 C 180.132812 196.972656 178.988281 197.347656 177.855469 197.753906 C 176.722656 198.160156 175.597656 198.589844 174.484375 199.050781 C 173.375 199.511719 172.273438 199.996094 171.183594 200.511719 C 170.097656 201.027344 169.019531 201.566406 167.957031 202.132812 C 166.898438 202.699219 165.847656 203.292969 164.816406 203.910156 C 163.78125 204.527344 162.765625 205.171875 161.765625 205.839844 C 160.761719 206.507812 159.777344 207.199219 158.808594 207.914062 C 157.84375 208.628906 156.894531 209.371094 155.960938 210.132812 C 155.03125 210.894531 154.117188 211.679688 153.226562 212.488281 C 152.332031 213.296875 151.460938 214.125 150.609375 214.972656 Z M 150.609375 214.972656 " fill-opacity="1" fill-rule="nonzero"/><g clip-path="url(#f7790a2788)"><path fill="#b0adad" d="M 227.269531 267.003906 C 227.269531 267.808594 227.230469 268.613281 227.148438 269.417969 C 227.070312 270.21875 226.953125 271.015625 226.792969 271.808594 C 226.636719 272.597656 226.441406 273.382812 226.207031 274.152344 C 225.972656 274.925781 225.703125 275.683594 225.394531 276.429688 C 225.085938 277.175781 224.738281 277.902344 224.359375 278.613281 C 223.980469 279.324219 223.566406 280.015625 223.117188 280.6875 C 222.667969 281.359375 222.1875 282.003906 221.675781 282.628906 C 221.164062 283.253906 220.625 283.847656 220.054688 284.421875 C 219.484375 284.992188 218.886719 285.53125 218.261719 286.042969 C 217.640625 286.554688 216.992188 287.035156 216.320312 287.484375 C 215.652344 287.929688 214.960938 288.34375 214.246094 288.726562 C 213.535156 289.105469 212.808594 289.449219 212.0625 289.757812 C 211.316406 290.066406 210.558594 290.339844 209.785156 290.574219 C 209.015625 290.808594 208.234375 291.003906 207.441406 291.160156 C 206.652344 291.320312 205.855469 291.4375 205.050781 291.515625 C 204.25 291.59375 203.445312 291.632812 202.636719 291.632812 C 201.832031 291.632812 201.027344 291.59375 200.222656 291.515625 C 199.417969 291.4375 198.621094 291.320312 197.832031 291.160156 C 197.039062 291.003906 196.257812 290.808594 195.488281 290.574219 C 194.714844 290.339844 193.957031 290.066406 193.210938 289.757812 C 192.464844 289.449219 191.738281 289.105469 191.027344 288.726562 C 190.3125 288.34375 189.625 287.929688 188.953125 287.484375 C 188.28125 287.035156 187.632812 286.554688 187.011719 286.042969 C 186.386719 285.53125 185.789062 284.992188 185.21875 284.421875 C 184.648438 283.847656 184.109375 283.253906 183.597656 282.628906 C 183.085938 282.003906 182.605469 281.359375 182.15625 280.6875 C 181.707031 280.015625 181.292969 279.324219 180.914062 278.613281 C 180.535156 277.902344 180.1875 277.175781 179.878906 276.429688 C 179.570312 275.683594 179.300781 274.925781 179.066406 274.152344 C 178.832031 273.382812 178.636719 272.597656 178.480469 271.808594 C 178.320312 271.015625 178.203125 270.21875 178.125 269.417969 C 178.046875 268.613281 178.003906 267.808594 178.003906 267.003906 C 178.003906 266.195312 178.046875 265.390625 178.125 264.589844 C 178.203125 263.785156 178.320312 262.988281 178.480469 262.199219 C 178.636719 261.40625 178.832031 260.625 179.066406 259.851562 C 179.300781 259.082031 179.570312 258.324219 179.878906 257.578125 C 180.1875 256.832031 180.535156 256.101562 180.914062 255.390625 C 181.292969 254.679688 181.707031 253.988281 182.15625 253.320312 C 182.605469 252.648438 183.085938 252 183.597656 251.378906 C 184.109375 250.753906 184.648438 250.15625 185.21875 249.585938 C 185.789062 249.015625 186.386719 248.476562 187.011719 247.964844 C 187.632812 247.449219 188.28125 246.972656 188.953125 246.523438 C 189.625 246.074219 190.3125 245.660156 191.027344 245.28125 C 191.738281 244.898438 192.464844 244.554688 193.210938 244.246094 C 193.957031 243.9375 194.714844 243.667969 195.488281 243.433594 C 196.257812 243.199219 197.039062 243.003906 197.832031 242.84375 C 198.621094 242.6875 199.417969 242.570312 200.222656 242.492188 C 201.027344 242.410156 201.832031 242.371094 202.636719 242.371094 C 203.445312 242.371094 204.25 242.410156 205.050781 242.492188 C 205.855469 242.570312 206.652344 242.6875 207.441406 242.84375 C 208.234375 243.003906 209.015625 243.199219 209.785156 243.433594 C 210.558594 243.667969 211.316406 243.9375 212.0625 244.246094 C 212.808594 244.554688 213.535156 244.898438 214.246094 245.28125 C 214.960938 245.660156 215.652344 246.074219 216.320312 246.523438 C 216.992188 246.972656 217.640625 247.449219 218.261719 247.964844 C 218.886719 248.476562 219.484375 249.015625 220.054688 249.585938 C 220.625 250.15625 221.164062 250.753906 221.675781 251.378906 C 222.1875 252 222.667969 252.648438 223.117188 253.320312 C 223.566406 253.988281 223.980469 254.679688 224.359375 255.390625 C 224.738281 256.101562 225.085938 256.832031 225.394531 257.578125 C 225.703125 258.324219 225.972656 259.082031 226.207031 259.851562 C 226.441406 260.625 226.636719 261.40625 226.792969 262.199219 C 226.953125 262.988281 227.070312 263.785156 227.148438 264.589844 C 227.230469 265.390625 227.269531 266.195312 227.269531 267.003906 Z M 227.269531 267.003906 " fill-opacity="1" fill-rule="nonzero"/></g></svg>